{"title":"The.Pillars.Of.The.Earth.Pt.IV.720p.HDTV.x264-DIMENSION","uid":5746198,"size":1172182499,"categoryP":"video","categoryS":"hd___tv_shows","magnet":"?xt=urn:btih:fea9e61d311925fcb6162dc72a4b84c1590cee5f&amp;dn=The.Pillars.Of.The.Earth.Pt.IV.720p.HDTV.x264-DIMENSION&amp;tr=udp%3A%2F%2Ftracker.openbittorrent.com%3A80&amp;tr=udp%3A%2F%2Fopen.demonii.com%3A1337&amp;tr=udp%3A%2F%2Ftracker.coppersurfer.tk%3A6969&amp;tr=udp%3A%2F%2Fexodus.desync.com%3A6969","seeders":0,"leechers":0,"uploader":"insinuendo","files":27,"time":1281228623,"description":"The.Pillars.Of.The.Earth.Pt.IV.720p.HDTV.X264-DIMENSION\nAired 06.08.2010\n\n&quot;Battlefield&quot;\n\nWilliam wants his father s title of Earl, but finds a\nmysterious knight is a rival for the title. King\nStephen orders an assassin to kill Jack. Waleran tells\nMaud the man who betrayed Earl Bartholomew is Philip\n\nEnjoy!\n\nGeneral\nComplete name                    : C:\\Users\\insinuendo\\Documents\\TV\\The Pillars Of The Earth\\The.Pillars.of.the.Earth.Pt.IV.720p.HDTV.X264-DIMENSION.mkv\nFormat                           : Matroska\nFile size                        : 1.09 GiB\nDuration                         : 47mn 48s\nOverall bit rate                 : 3 269 Kbps\nEncoded date                     : UTC 2010-08-07 10:18:40\nWriting application              : mkvmerge v4.1.1 ('Bouncin' Back') built on Jul  3 2010 22:54:08\nWriting library                  : libebml v1.0.0 + libmatroska v1.0.0\n\nVideo\nID                               : 1\nFormat                           : AVC\nFormat/Info                      : Advanced Video Codec\nFormat profile                   : &lt;a class=&quot;__cf_email__&quot; href=&quot;/cdn-cgi/l/email-protection&quot; data-cfemail=&quot;0d45646a654d413e233c&quot;&gt;[email&amp;#160;protected]&lt;/a&gt;&lt;script data-cfhash='f9e31' type=&quot;text/javascript&quot;&gt;\n/* &lt;![CDATA[ */!function(){try{var t=&quot;currentScript&quot;in document?document.currentScript:function(){for(var t=document.getElementsByTagName(&quot;script&quot;),e=t.length;e--;)if(t[e].getAttribute(&quot;data-cfhash&quot;))return t[e]}();if(t&amp;&amp;t.previousSibling){var e,r,n,i,c=t.previousSibling,a=c.getAttribute(&quot;data-cfemail&quot;);if(a){for(e=&quot;&quot;,r=parseInt(a.substr(0,2),16),n=2;a.length-n;n+=2)i=parseInt(a.substr(n,2),16)^r,e+=String.fromCharCode(i);e=document.createTextNode(e),c.parentNode.replaceChild(e,c)}t.parentNode.removeChild(t);}}catch(u){}}()/* ]]&gt; */&lt;/script&gt;\nFormat settings, CABAC           : Yes\nFormat settings, ReFrames        : 5 frames\nMuxing mode                      : Container profile=&lt;a class=&quot;__cf_email__&quot; href=&quot;/cdn-cgi/l/email-protection&quot; data-cfemail=&quot;1c49727772736b725c2f322d&quot;&gt;[email&amp;#160;protected]&lt;/a&gt;&lt;script data-cfhash='f9e31' type=&quot;text/javascript&quot;&gt;\n/* &lt;![CDATA[ */!function(){try{var t=&quot;currentScript&quot;in document?document.currentScript:function(){for(var t=document.getElementsByTagName(&quot;script&quot;),e=t.length;e--;)if(t[e].getAttribute(&quot;data-cfhash&quot;))return t[e]}();if(t&amp;&amp;t.previousSibling){var e,r,n,i,c=t.previousSibling,a=c.getAttribute(&quot;data-cfemail&quot;);if(a){for(e=&quot;&quot;,r=parseInt(a.substr(0,2),16),n=2;a.length-n;n+=2)i=parseInt(a.substr(n,2),16)^r,e+=String.fromCharCode(i);e=document.createTextNode(e),c.parentNode.replaceChild(e,c)}t.parentNode.removeChild(t);}}catch(u){}}()/* ]]&gt; */&lt;/script&gt;\nCodec ID                         : V_MPEG4/ISO/AVC\nDuration                         : 47mn 45s\nBit rate                         : 2 820 Kbps\nNominal bit rate                 : 2 884 Kbps\nWidth                            : 1 280 pixels\nHeight                           : 720 pixels\nDisplay aspect ratio             : 16:9\nFrame rate                       : 23.976 fps\nResolution                       : 24 bits\nColorimetry                      : 4:2:0\nScan type                        : Progressive\nBits/(Pixel*Frame)               : 0.128\nStream size                      : 963 MiB (86%)\nWriting library                  : x264 core 104 r1677 19df41a\n\n\nAudio\nID                               : 2\nFormat                           : AC-3\nFormat/Info                      : Audio Coding 3\nCodec ID                         : A_AC3\nDuration                         : 47mn 48s\nBit rate mode                    : Constant\nBit rate                         : 384 Kbps\nChannel(s)                       : 6 channels\nChannel positions                : Front: L C R, Surround: L R, LFE\nSampling rate                    : 48.0 KHz\nStream size                      : 131 MiB (12%)\n\n","torrent":{"xt":"urn:btih:fea9e61d311925fcb6162dc72a4b84c1590cee5f","amp;dn":"The.Pillars.Of.The.Earth.Pt.IV.720p.HDTV.x264-DIMENSION","amp;tr":["udp%3A%2F%2Ftracker.openbittorrent.com%3A80","udp%3A%2F%2Fopen.demonii.com%3A1337","udp%3A%2F%2Ftracker.coppersurfer.tk%3A6969","udp%3A%2F%2Fexodus.desync.com%3A6969"],"infoHash":"fea9e61d311925fcb6162dc72a4b84c1590cee5f","infoHashBuffer":{"type":"Buffer","data":[254,169,230,29,49,25,37,252,182,22,45,199,42,75,132,193,89,12,238,95]},"announce":[],"urlList":[]}}